<?xml version="1.0" encoding="UTF-8" standalone="no"?>
<!-- Created with Inkscape (http://www.inkscape.org/) -->

<svg
   xmlns:osb="http://www.openswatchbook.org/uri/2009/osb"
   xmlns:dc="http://purl.org/dc/elements/1.1/"
   xmlns:cc="http://creativecommons.org/ns#"
   xmlns:rdf="http://www.w3.org/1999/02/22-rdf-syntax-ns#"
   xmlns:svg="http://www.w3.org/2000/svg"
   xmlns="http://www.w3.org/2000/svg"
   xmlns:xlink="http://www.w3.org/1999/xlink"
   xmlns:sodipodi="http://sodipodi.sourceforge.net/DTD/sodipodi-0.dtd"
   xmlns:inkscape="http://www.inkscape.org/namespaces/inkscape"
   width="3016.4512"
   height="819.47717"
   viewBox="0 0 3016.4513 819.47718"
   id="svg3353"
   version="1.1"
   inkscape:version="0.91 r13725"
   sodipodi:docname="dv4all_logo_v7_2016_hd.svg">
  <defs
     id="defs3355">
    <linearGradient
       inkscape:collect="always"
       id="linearGradient4167">
      <stop
         style="stop-color:#00a068;stop-opacity:1;"
         offset="0"
         id="stop4169" />
      <stop
         style="stop-color:#00a068;stop-opacity:0;"
         offset="1"
         id="stop4171" />
    </linearGradient>
    <linearGradient
       id="linearGradient6025"
       osb:paint="solid">
      <stop
         style="stop-color:#0b0404;stop-opacity:1;"
         offset="0"
         id="stop6027" />
    </linearGradient>
    <linearGradient
       id="linearGradient5999"
       osb:paint="solid">
      <stop
         style="stop-color:#31b2dd;stop-opacity:1;"
         offset="0"
         id="stop6001" />
    </linearGradient>
    <linearGradient
       id="linearGradient5775"
       osb:paint="gradient">
      <stop
         style="stop-color:#008cba;stop-opacity:1;"
         offset="0"
         id="stop5777" />
      <stop
         style="stop-color:#008cba;stop-opacity:0;"
         offset="1"
         id="stop5779" />
    </linearGradient>
    <linearGradient
       id="linearGradient5761"
       osb:paint="solid">
      <stop
         style="stop-color:#ff0000;stop-opacity:1;"
         offset="0"
         id="stop5763" />
    </linearGradient>
    <linearGradient
       id="linearGradient5743"
       osb:paint="solid">
      <stop
         style="stop-color:#ec4c40;stop-opacity:1;"
         offset="0"
         id="stop5745" />
    </linearGradient>
    <linearGradient
       id="linearGradient5725">
      <stop
         style="stop-color:#fb4639;stop-opacity:1;"
         offset="0"
         id="stop5727" />
    </linearGradient>
    <radialGradient
       inkscape:collect="always"
       xlink:href="#linearGradient4167"
       id="radialGradient4173"
       cx="436.00812"
       cy="411.68979"
       fx="436.00812"
       fy="411.68979"
       r="288.89346"
       gradientUnits="userSpaceOnUse"
       gradientTransform="matrix(3.2084634,0.01412117,-0.00647306,1.4707409,-960.24308,-199.95615)" />
  </defs>
  <sodipodi:namedview
     id="base"
     pagecolor="#ffffff"
     bordercolor="#666666"
     borderopacity="1.0"
     inkscape:pageopacity="0.0"
     inkscape:pageshadow="2"
     inkscape:zoom="0.25"
     inkscape:cx="1046.5699"
     inkscape:cy="701.38828"
     inkscape:document-units="px"
     inkscape:current-layer="layer1"
     showgrid="false"
     units="px"
     inkscape:snap-grids="true"
     inkscape:window-width="1920"
     inkscape:window-height="1055"
     inkscape:window-x="0"
     inkscape:window-y="0"
     inkscape:window-maximized="1"
     fit-margin-top="0"
     fit-margin-left="0"
     fit-margin-right="0"
     fit-margin-bottom="0"
     inkscape:showpageshadow="false"
     showborder="true">
    <inkscape:grid
       type="xygrid"
       id="grid4165"
       originx="80.135843"
       originy="-246.17931" />
  </sodipodi:namedview>
  <metadata
     id="metadata3358">
    <rdf:RDF>
      <cc:Work
         rdf:about="">
        <dc:format>image/svg+xml</dc:format>
        <dc:type
           rdf:resource="http://purl.org/dc/dcmitype/StillImage" />
        <dc:title></dc:title>
      </cc:Work>
    </rdf:RDF>
  </metadata>
  <g
     inkscape:label="Layer 1"
     inkscape:groupmode="layer"
     id="layer1"
     transform="translate(80.135839,13.294259)">
    <circle
       style="fill:url(#radialGradient4173);fill-opacity:1;stroke:#333333;stroke-width:2.00000012;stroke-miterlimit:4;stroke-dasharray:none;stroke-opacity:0.98039216;fill-rule:nonzero"
       id="path3361"
       cx="436.00812"
       cy="411.68979"
       r="287.89346" />
    <rect
       style="fill:#009bff;fill-opacity:1;fill-rule:nonzero;stroke:#333333;stroke-width:2.00000012;stroke-miterlimit:4;stroke-dasharray:none;stroke-opacity:0.98039216"
       id="rect4169"
       width="358.21579"
       height="351.52658"
       x="562.99219"
       y="454.07401" />
    <path
       style="fill:#ff0000;fill-opacity:1;fill-rule:evenodd;stroke:#333333;stroke-width:2.00000012;stroke-linecap:butt;stroke-linejoin:miter;stroke-miterlimit:4;stroke-dasharray:none;stroke-opacity:0.98039216"
       d="m -79.265287,330.24902 399.673407,0 -199.83671,-342.551018 z"
       id="path4171"
       inkscape:connector-curvature="0" />
    <path
       inkscape:connector-curvature="0"
       id="path4255"
       style="font-style:normal;font-variant:normal;font-weight:500;font-stretch:normal;font-size:747.99645996px;line-height:125%;font-family:Ubuntu;-inkscape-font-specification:'Ubuntu Medium';letter-spacing:0px;word-spacing:0px;fill:#1a1a1a;fill-opacity:1;stroke:none;stroke-width:1px;stroke-linecap:butt;stroke-linejoin:miter;stroke-opacity:1"
       d="m 1140.4076,650.27603 q 0,45.1904 24.9406,71.17488 24.9407,25.4196 68.9149,25.4196 19.0337,0 32.1603,-1.12977 13.783,-1.69464 22.3152,-3.38928 l 0,-169.46398 q -10.5012,-6.21367 -28.2221,-11.29759 -17.0647,-5.64881 -36.7547,-5.64881 -43.3179,0 -63.6642,25.4196 -19.69,25.41959 -19.69,68.91535 z m 227.7473,139.52535 q -23.628,6.21368 -59.7263,11.2976 -35.4419,5.08392 -74.8219,5.08392 -40.6926,0 -72.8528,-10.73272 -32.1602,-10.73272 -55.1319,-30.50352 -22.3153,-20.33567 -34.7856,-48.57967 -11.8139,-28.80888 -11.8139,-64.39631 0,-35.02256 9.8449,-63.26655 10.5014,-28.80888 30.1913,-49.14456 19.69,-20.33569 47.9123,-31.0684 28.2222,-11.2976 64.9768,-11.2976 24.9406,0 43.9743,5.08392 19.0336,5.08392 32.8165,11.2976 l 0,-141.78486 79.4163,-11.2976 0,429.30875 z" />
    <path
       inkscape:connector-curvature="0"
       id="path4257"
       style="font-style:normal;font-variant:normal;font-weight:500;font-stretch:normal;font-size:747.99645996px;line-height:125%;font-family:Ubuntu;-inkscape-font-specification:'Ubuntu Medium';letter-spacing:0px;word-spacing:0px;fill:#1a1a1a;fill-opacity:1;stroke:none;stroke-width:1px;stroke-linecap:butt;stroke-linejoin:miter;stroke-opacity:1"
       d="m 1522.9836,804.83946 q -32.8166,-58.18263 -67.6022,-133.31166 -34.1292,-75.69392 -62.3515,-162.12055 l 84.6669,0 q 7.2196,24.85472 16.4083,53.6636 9.8449,28.24399 20.3463,57.05287 11.1576,28.244 22.3152,55.35823 11.814,26.54937 21.659,48.0148 9.845,-21.46543 21.0026,-48.0148 11.1577,-27.11423 21.6589,-55.35823 11.1577,-28.80888 21.0027,-57.05287 9.8449,-28.80888 17.0646,-53.6636 l 82.0415,0 q -28.2223,86.42663 -63.0078,162.12055 -34.1293,75.12903 -66.946,133.31166 l -68.2585,0 z" />
    <path
       style="font-style:normal;font-variant:normal;font-weight:500;font-stretch:normal;font-size:747.99645996px;line-height:125%;font-family:Ubuntu;-inkscape-font-specification:'Ubuntu Medium';letter-spacing:0px;word-spacing:0px;fill:#ff0000;fill-opacity:1;stroke:none;stroke-width:1px;stroke-linecap:butt;stroke-linejoin:miter;stroke-opacity:1"
       d="m 1954.4814,387.09243 c -20.1275,18.90804 -40.2554,40.02886 -60.3828,63.36218 -20.1276,23.33333 -39.1618,47.06942 -57.1016,71.20735 -17.9397,24.13793 -34.3478,47.67331 -49.2246,70.60435 -14.4393,22.93102 -26.0341,43.24697 -34.7852,60.94811 l 0,51.89698 199.5254,0 0,100.17184 77.4473,0 0,-100.17184 28.666,0 c 0.1167,-17.7264 3.8266,-32.73293 11.1465,-45.00533 3.3243,-5.26388 7.1212,-10.09094 11.3809,-14.49477 l 0,-0.24204 -51.1934,0 0,-258.27683 -75.4785,0 z m -1.9688,89.91471 0,168.36212 -121.4218,0 c 7.876,-14.88506 16.6277,-29.76975 26.2539,-44.65481 9.6262,-15.28735 19.6901,-30.17205 30.1914,-44.65481 10.5014,-14.48276 21.2213,-28.36191 32.1601,-41.63777 11.3764,-13.27586 22.3151,-25.74808 32.8164,-37.41473 z"
       id="path4259"
       inkscape:connector-curvature="0" />
    <path
       inkscape:connector-curvature="0"
       id="path4263"
       style="font-style:normal;font-variant:normal;font-weight:500;font-stretch:normal;font-size:747.99645996px;line-height:125%;font-family:Ubuntu;-inkscape-font-specification:'Ubuntu Medium';letter-spacing:0px;word-spacing:0px;fill:#808080;fill-opacity:1;stroke:none;stroke-width:1px;stroke-linecap:butt;stroke-linejoin:miter;stroke-opacity:1"
       d="m 2550.3092,808.48826 q -35.442,-0.56488 -59.07,-6.77856 -22.9716,-6.21368 -36.7545,-17.51128 -13.783,-11.86248 -19.69,-28.80887 -5.2507,-17.51128 -5.2507,-39.5416 l 0,-340.05772 79.4162,-11.2976 0,338.36308 q 0,12.42736 1.969,20.90056 2.6254,8.47319 8.5323,14.68687 5.907,5.6488 15.752,9.03809 10.5013,2.82439 26.2532,4.51903 l -11.1575,56.488 z" />
    <path
       inkscape:connector-curvature="0"
       id="path4265"
       style="font-style:normal;font-variant:normal;font-weight:500;font-stretch:normal;font-size:747.99645996px;line-height:125%;font-family:Ubuntu;-inkscape-font-specification:'Ubuntu Medium';letter-spacing:0px;word-spacing:0px;fill:#808080;fill-opacity:1;stroke:none;stroke-width:1px;stroke-linecap:butt;stroke-linejoin:miter;stroke-opacity:1"
       d="m 2703.1577,808.48826 q -35.442,-0.56488 -59.0699,-6.77856 -22.9717,-6.21368 -36.7546,-17.51128 -13.783,-11.86248 -19.69,-28.80887 -5.2507,-17.51128 -5.2507,-39.5416 l 0,-340.05772 79.4162,-11.2976 0,338.36308 q 0,12.42736 1.9691,20.90056 2.6253,8.47319 8.5322,14.68687 5.907,5.6488 15.752,9.03809 10.5013,2.82439 26.2533,4.51903 l -11.1576,56.488 z" />
    <path
       inkscape:connector-curvature="0"
       id="path4261-3"
       style="font-style:normal;font-variant:normal;font-weight:500;font-stretch:normal;font-size:747.99645996px;line-height:125%;font-family:Ubuntu;-inkscape-font-specification:'Ubuntu Medium';letter-spacing:0px;word-spacing:0px;fill:#808080;fill-opacity:1;stroke:none;stroke-width:1px;stroke-linecap:butt;stroke-linejoin:miter;stroke-opacity:1"
       d="m 2249.0996,752.44908 q 36.7546,0 55.7882,-3.3892 l 0,-75.69395 q -6.5634,-1.69465 -19.0336,-3.38929 -12.4704,-1.69463 -27.566,-1.69463 -13.1266,0 -26.9096,1.69463 -13.1267,1.69464 -24.2843,6.21364 -10.5014,4.5191 -17.0646,12.9923 -6.5634,7.9083 -6.5634,20.3357 0,24.2898 17.721,33.8928 17.7209,9.038 47.9123,9.038 z m -6.5633,-254.76083 q 39.3799,0 66.2894,8.4732 26.9097,8.4732 42.6616,23.72496 16.4083,15.25175 22.9717,37.28207 7.2196,21.46544 7.2196,47.44993 l 0,179.06697 q -18.3773,3.3893 -55.7882,7.9083 -36.7546,5.0839 -83.3541,5.0839 -30.8476,0 -56.4447,-5.0839 -25.597,-5.0839 -43.9743,-16.3815 -17.721,-11.2976 -28.2223,-29.3738 -9.845,-18.0761 -9.845,-44.6255 0,-25.4196 11.1577,-42.93087 11.814,-17.51128 31.5039,-28.244 19.69,-11.2976 45.287,-15.81664 26.2533,-5.08392 54.4756,-5.08392 13.1267,0 27.5659,1.69464 14.4394,1.12976 30.8477,4.51904 l 0,-11.2976 q 0,-11.86249 -3.2817,-22.59521 -3.2817,-10.73271 -11.814,-18.64103 -7.8759,-8.47321 -21.6589,-12.99225 -13.1267,-4.51903 -33.473,-4.51903 -27.5659,0 -50.5375,3.38928 -22.9718,3.38927 -37.4111,7.90831 l -9.8449,-55.35823 q 15.0956,-4.51904 43.9742,-9.03808 28.8787,-4.51904 61.6954,-4.51904 z" />
  </g>
</svg>
